<svg width="1440" height="135" viewBox="0 0 1440 135" fill="none" xmlns="http://www.w3.org/2000/svg">
<path d="M-58.2074 2.0909V1.0909H-59.2074V2.0909H-58.2074ZM-30.8494 2.0909H-29.8494V1.0909H-30.8494V2.0909ZM-36.5384 115.358L-37.3922 114.837L-37.3948 114.842L-36.5384 115.358ZM-52.1989 129.74L-52.6484 128.847L-52.1989 129.74ZM-97.0071 130.635L-97.4099 131.55L-97.4025 131.553L-97.0071 130.635ZM-112.22 117.851L-113.058 118.397L-113.056 118.4L-112.22 117.851ZM-117.781 96.1818V95.1818H-118.776L-118.781 96.1769L-117.781 96.1818ZM-90.2315 96.1818L-89.2318 96.1571L-89.2559 95.1818H-90.2315V96.1818ZM-88.1222 105.067L-89.0041 105.538L-88.9992 105.547L-88.9941 105.556L-88.1222 105.067ZM-82.5611 110.692L-83.0521 111.563L-83.0428 111.568L-83.0333 111.573L-82.5611 110.692ZM-65.4943 110.436L-64.9685 111.287L-64.9643 111.284L-65.4943 110.436ZM-60.0611 103.916L-59.1434 104.313L-60.0611 103.916ZM-58.2074 3.0909H-30.8494V1.0909H-58.2074V3.0909ZM-31.8494 2.0909V93.3693H-29.8494V2.0909H-31.8494ZM-31.8494 93.3693C-31.8494 101.653 -33.7094 108.796 -37.3922 114.837L-35.6845 115.878C-31.782 109.477 -29.8494 101.961 -29.8494 93.3693H-31.8494ZM-37.3948 114.842C-41.0443 120.897 -46.121 125.562 -52.6484 128.847L-51.7494 130.633C-44.896 127.185 -39.5324 122.263 -35.6819 115.874L-37.3948 114.842ZM-52.6484 128.847C-59.1759 132.131 -66.7938 133.79 -75.5298 133.79V135.79C-66.5386 135.79 -58.6026 134.082 -51.7494 130.633L-52.6484 128.847ZM-75.5298 133.79C-83.2944 133.79 -90.3167 132.426 -96.6117 129.716L-97.4025 131.553C-90.8282 134.383 -83.5323 135.79 -75.5298 135.79V133.79ZM-96.6044 129.72C-102.824 126.983 -107.743 122.847 -111.384 117.302L-113.056 118.4C-109.198 124.275 -103.974 128.662 -97.4098 131.55L-96.6044 129.72ZM-111.382 117.305C-115 111.754 -116.823 104.736 -116.781 96.1867L-118.781 96.1769C-118.825 105.014 -116.94 112.442 -113.058 118.397L-111.382 117.305ZM-117.781 97.1818H-90.2315V95.1818H-117.781V97.1818ZM-91.2312 96.2065C-91.143 99.7787 -90.4138 102.901 -89.0041 105.538L-87.2402 104.595C-88.4726 102.29 -89.1496 99.4883 -89.2318 96.1571L-91.2312 96.2065ZM-88.9941 105.556C-87.5442 108.139 -85.5612 110.149 -83.0521 111.563L-82.0701 109.821C-84.2485 108.593 -85.9729 106.852 -87.2502 104.577L-88.9941 105.556ZM-83.0333 111.573C-80.4757 112.943 -77.4948 113.609 -74.1236 113.609V111.609C-77.2297 111.609 -79.8737 110.997 -82.0889 109.81L-83.0333 111.573ZM-74.1236 113.609C-70.5727 113.609 -67.5039 112.854 -64.9685 111.287L-66.0201 109.585C-68.1723 110.916 -70.8563 111.609 -74.1236 111.609V113.609ZM-64.9643 111.284C-62.388 109.674 -60.4508 107.334 -59.1434 104.313L-60.9788 103.519C-62.1429 106.208 -63.8279 108.215 -66.0243 109.588L-64.9643 111.284ZM-59.1434 104.313C-57.8381 101.298 -57.2074 97.6379 -57.2074 93.3693H-59.2074C-59.2074 97.453 -59.8125 100.824 -60.9788 103.519L-59.1434 104.313ZM-57.2074 93.3693V2.0909H-59.2074V93.3693H-57.2074ZM104.214 103.98L103.335 103.505L103.333 103.508L104.214 103.98ZM82.2258 126.928L82.719 127.798L82.7203 127.797L82.2258 126.928ZM19.7117 126.864L20.2078 125.995L19.7117 126.864ZM-2.21307 103.916L-3.09438 104.389L-2.21307 103.916ZM-2.21307 31.1108L-1.33176 31.5833L-2.21307 31.1108ZM19.7117 8.22727L20.2048 9.09724L20.2078 9.09552L19.7117 8.22727ZM82.2258 8.22727L81.7297 9.09553L81.7345 9.09821L82.2258 8.22727ZM104.214 31.1108L103.333 31.5833L103.335 31.5862L104.214 31.1108ZM80.1165 44.1506L79.1976 44.5452L79.1999 44.5504L80.1165 44.1506ZM68.5469 29.7045L67.9971 30.5399L68.5469 29.7045ZM33.5185 29.7045L34.0682 30.5399L33.5185 29.7045ZM21.8849 44.1506L20.9684 43.7507L20.9661 43.7559L21.8849 44.1506ZM21.8849 90.9403L20.9661 91.335L20.9684 91.3402L21.8849 90.9403ZM33.5185 105.386L34.0682 104.551L33.5185 105.386ZM68.5469 105.386L67.9971 104.551L68.5469 105.386ZM80.1165 90.9403L79.1999 90.5405L79.1976 90.5457L80.1165 90.9403ZM111.332 67.5455C111.332 81.6964 108.65 93.6691 103.335 103.505L105.094 104.456C110.603 94.2628 113.332 81.9456 113.332 67.5455H111.332ZM103.333 103.508C98.047 113.367 90.847 120.873 81.7314 126.058L82.7203 127.797C92.1843 122.414 99.6433 114.622 105.096 104.453L103.333 103.508ZM81.7327 126.058C72.6488 131.207 62.4235 133.79 51.0327 133.79V135.79C62.7384 135.79 73.3086 133.132 82.719 127.798L81.7327 126.058ZM51.0327 133.79C39.5567 133.79 29.2901 131.185 20.2078 125.995L19.2155 127.732C28.6275 133.11 39.2416 135.79 51.0327 135.79V133.79ZM20.2078 125.995C11.1346 120.811 3.95506 113.304 -1.33176 103.444L-3.09438 104.389C2.35745 114.557 9.79434 122.348 19.2155 127.732L20.2078 125.995ZM-1.33176 103.444C-6.6059 93.607 -9.26704 81.6544 -9.26704 67.5455H-11.267C-11.267 81.9024 -8.55888 94.197 -3.09438 104.389L-1.33176 103.444ZM-9.26704 67.5455C-9.26704 53.3933 -6.60568 41.4196 -1.33176 31.5833L-3.09438 30.6383C-8.55909 40.8304 -11.267 53.1464 -11.267 67.5455H-9.26704ZM-1.33176 31.5833C3.95473 21.7236 11.1334 14.2391 20.2048 9.09724L19.2185 7.35731C9.79558 12.6984 2.35777 20.4696 -3.09438 30.6383L-1.33176 31.5833ZM20.2078 9.09552C29.2901 3.90561 39.5567 1.30113 51.0327 1.30113V-0.698868C39.2416 -0.698868 28.6275 1.98075 19.2155 7.35903L20.2078 9.09552ZM51.0327 1.30113C62.4221 1.30113 72.6463 3.90496 81.7297 9.09552L82.722 7.35903C73.3111 1.98139 62.7399 -0.698868 51.0327 -0.698868V1.30113ZM81.7345 9.09821C90.8482 14.2404 98.0473 21.7248 103.333 31.5833L105.096 30.6383C99.643 20.4684 92.1831 12.6971 82.7173 7.35634L81.7345 9.09821ZM103.335 31.5862C108.65 41.4219 111.332 53.3945 111.332 67.5455H113.332C113.332 53.1453 110.603 40.8281 105.094 30.6354L103.335 31.5862ZM85.2713 67.5455C85.2713 58.2043 83.8731 50.2609 81.0331 43.7507L79.1999 44.5504C81.8996 50.7391 83.2713 58.3922 83.2713 67.5455H85.2713ZM81.0353 43.7559C78.2433 37.2557 74.2705 32.2742 69.0966 28.8692L67.9971 30.5399C72.7948 33.6973 76.5351 38.3466 79.1976 44.5452L81.0353 43.7559ZM69.0966 28.8692C63.9283 25.4678 57.894 23.7827 51.0327 23.7827V25.7827C57.552 25.7827 63.1938 27.3787 67.9971 30.5399L69.0966 28.8692ZM51.0327 23.7827C44.1714 23.7827 38.137 25.4678 32.9687 28.8692L34.0682 30.5399C38.8715 27.3787 44.5133 25.7827 51.0327 25.7827V23.7827ZM32.9687 28.8692C27.7963 32.2733 23.803 37.2528 20.9684 43.7507L22.8015 44.5504C25.5067 38.3494 29.269 33.6983 34.0682 30.5399L32.9687 28.8692ZM20.9661 43.7559C18.1705 50.2645 16.794 58.206 16.794 67.5455H18.794C18.794 58.3906 20.1449 50.7355 22.8038 44.5452L20.9661 43.7559ZM16.794 67.5455C16.794 76.8849 18.1705 84.8264 20.9661 91.335L22.8038 90.5457C20.1449 84.3554 18.794 76.7003 18.794 67.5455H16.794ZM20.9684 91.3402C23.803 97.8381 27.7963 102.818 32.9687 106.222L34.0682 104.551C29.269 101.393 25.5067 96.7415 22.8015 90.5405L20.9684 91.3402ZM32.9687 106.222C38.137 109.623 44.1714 111.308 51.0327 111.308V109.308C44.5133 109.308 38.8715 107.712 34.0682 104.551L32.9687 106.222ZM51.0327 111.308C57.894 111.308 63.9283 109.623 69.0966 106.222L67.9971 104.551C63.1938 107.712 57.552 109.308 51.0327 109.308V111.308ZM69.0966 106.222C74.2705 102.817 78.2433 97.8352 81.0353 91.335L79.1976 90.5457C76.5351 96.7444 72.7948 101.394 67.9971 104.551L69.0966 106.222ZM81.0331 91.3402C83.8731 84.83 85.2713 76.8866 85.2713 67.5455H83.2713C83.2713 76.6987 81.8996 84.3518 79.1999 90.5405L81.0331 91.3402ZM160.512 2.0909H161.512V1.0909H160.512V2.0909ZM160.512 133V134H161.512V133H160.512ZM132.835 133H131.835V134H132.835V133ZM132.835 2.0909V1.0909H131.835V2.0909H132.835ZM159.512 2.0909V133H161.512V2.0909H159.512ZM160.512 132H132.835V134H160.512V132ZM133.835 133V2.0909H131.835V133H133.835ZM132.835 3.0909H160.512V1.0909H132.835V3.0909ZM292.78 2.0909H293.78V1.0909H292.78V2.0909ZM292.78 133V134H293.78V133H292.78ZM268.874 133L268.051 133.569L268.349 134H268.874V133ZM211.92 50.6065L212.743 50.0379L212.445 49.6065H211.92V50.6065ZM210.962 50.6065V49.6065H209.962V50.6065H210.962ZM210.962 133V134H211.962V133H210.962ZM183.284 133H182.284V134H183.284V133ZM183.284 2.0909V1.0909H182.284V2.0909H183.284ZM207.574 2.0909L208.398 1.52503L208.1 1.0909H207.574V2.0909ZM264.08 84.4205L263.255 84.9863L263.553 85.4205H264.08V84.4205ZM265.23 84.4205V85.4205H266.23V84.4205H265.23ZM265.23 2.0909V1.0909H264.23V2.0909H265.23ZM291.78 2.0909V133H293.78V2.0909H291.78ZM292.78 132H268.874V134H292.78V132ZM269.696 132.431L212.743 50.0379L211.098 51.1751L268.051 133.569L269.696 132.431ZM211.92 49.6065H210.962V51.6065H211.92V49.6065ZM209.962 50.6065V133H211.962V50.6065H209.962ZM210.962 132H183.284V134H210.962V132ZM184.284 133V2.0909H182.284V133H184.284ZM183.284 3.0909H207.574V1.0909H183.284V3.0909ZM206.749 2.65678L263.255 84.9863L264.904 83.8546L208.398 1.52503L206.749 2.65678ZM264.08 85.4205H265.23V83.4205H264.08V85.4205ZM266.23 84.4205V2.0909H264.23V84.4205H266.23ZM265.23 3.0909H292.78V1.0909H265.23V3.0909ZM352.322 24.9105H351.322V25.9105H352.322V24.9105ZM352.322 2.0909V1.0909H351.322V2.0909H352.322ZM459.836 2.0909H460.836V1.0909H459.836V2.0909ZM459.836 24.9105V25.9105H460.836V24.9105H459.836ZM419.758 24.9105V23.9105H418.758V24.9105H419.758ZM419.758 133V134H420.758V133H419.758ZM392.4 133H391.4V134H392.4V133ZM392.4 24.9105H393.4V23.9105H392.4V24.9105ZM353.322 24.9105V2.0909H351.322V24.9105H353.322ZM352.322 3.0909H459.836V1.0909H352.322V3.0909ZM458.836 2.0909V24.9105H460.836V2.0909H458.836ZM459.836 23.9105H419.758V25.9105H459.836V23.9105ZM418.758 24.9105V133H420.758V24.9105H418.758ZM419.758 132H392.4V134H419.758V132ZM393.4 133V24.9105H391.4V133H393.4ZM392.4 23.9105H352.322V25.9105H392.4V23.9105ZM477.542 133H476.542V134H477.542V133ZM477.542 2.0909V1.0909H476.542V2.0909H477.542ZM505.219 2.0909H506.219V1.0909H505.219V2.0909ZM505.219 56.1037H504.219V57.1037H505.219V56.1037ZM561.406 56.1037V57.1037H562.406V56.1037H561.406ZM561.406 2.0909V1.0909H560.406V2.0909H561.406ZM589.019 2.0909H590.019V1.0909H589.019V2.0909ZM589.019 133V134H590.019V133H589.019ZM561.406 133H560.406V134H561.406V133ZM561.406 78.9233H562.406V77.9233H561.406V78.9233ZM505.219 78.9233V77.9233H504.219V78.9233H505.219ZM505.219 133V134H506.219V133H505.219ZM478.542 133V2.0909H476.542V133H478.542ZM477.542 3.0909H505.219V1.0909H477.542V3.0909ZM504.219 2.0909V56.1037H506.219V2.0909H504.219ZM505.219 57.1037H561.406V55.1037H505.219V57.1037ZM562.406 56.1037V2.0909H560.406V56.1037H562.406ZM561.406 3.0909H589.019V1.0909H561.406V3.0909ZM588.019 2.0909V133H590.019V2.0909H588.019ZM589.019 132H561.406V134H589.019V132ZM562.406 133V78.9233H560.406V133H562.406ZM561.406 77.9233H505.219V79.9233H561.406V77.9233ZM504.219 78.9233V133H506.219V78.9233H504.219ZM505.219 132H477.542V134H505.219V132ZM611.839 133H610.839V134H611.839V133ZM611.839 2.0909V1.0909H610.839V2.0909H611.839ZM700.049 2.0909H701.049V1.0909H700.049V2.0909ZM700.049 24.9105V25.9105H701.049V24.9105H700.049ZM639.516 24.9105V23.9105H638.516V24.9105H639.516ZM639.516 56.1037H638.516V57.1037H639.516V56.1037ZM695.511 56.1037H696.511V55.1037H695.511V56.1037ZM695.511 78.9233V79.9233H696.511V78.9233H695.511ZM639.516 78.9233V77.9233H638.516V78.9233H639.516ZM639.516 110.18H638.516V111.18H639.516V110.18ZM700.305 110.18H701.305V109.18H700.305V110.18ZM700.305 133V134H701.305V133H700.305ZM612.839 133V2.0909H610.839V133H612.839ZM611.839 3.0909H700.049V1.0909H611.839V3.0909ZM699.049 2.0909V24.9105H701.049V2.0909H699.049ZM700.049 23.9105H639.516V25.9105H700.049V23.9105ZM638.516 24.9105V56.1037H640.516V24.9105H638.516ZM639.516 57.1037H695.511V55.1037H639.516V57.1037ZM694.511 56.1037V78.9233H696.511V56.1037H694.511ZM695.511 77.9233H639.516V79.9233H695.511V77.9233ZM638.516 78.9233V110.18H640.516V78.9233H638.516ZM639.516 111.18H700.305V109.18H639.516V111.18ZM699.305 110.18V133H701.305V110.18H699.305ZM700.305 132H611.839V134H700.305V132ZM793.181 133L792.22 133.275L792.427 134H793.181V133ZM755.724 2.0909V1.0909H754.397L754.762 2.366L755.724 2.0909ZM785.958 2.0909L786.931 1.85916L786.748 1.0909H785.958V2.0909ZM807.627 93.0497L806.654 93.2815L806.837 94.0497H807.627V93.0497ZM808.714 93.0497V94.0497H809.485L809.681 93.3039L808.714 93.0497ZM832.62 2.0909V1.0909H831.849L831.653 1.83671L832.62 2.0909ZM858.508 2.0909L859.475 1.83785L859.28 1.0909H858.508V2.0909ZM882.35 93.2415L881.383 93.4945L881.578 94.2415H882.35V93.2415ZM883.501 93.2415V94.2415H884.291L884.474 93.4728L883.501 93.2415ZM905.17 2.0909V1.0909H904.38L904.197 1.85962L905.17 2.0909ZM935.404 2.0909L936.366 2.366L936.73 1.0909H935.404V2.0909ZM897.947 133V134H898.701L898.908 133.275L897.947 133ZM870.972 133L870.012 133.28L870.222 134H870.972V133ZM846.043 47.4105L847.003 47.1309L846.794 46.4105H846.043V47.4105ZM845.021 47.4105V46.4105H844.27L844.06 47.1315L845.021 47.4105ZM820.156 133V134H820.906L821.116 133.279L820.156 133ZM794.143 132.725L756.685 1.81581L754.762 2.366L792.22 133.275L794.143 132.725ZM755.724 3.0909H785.958V1.0909H755.724V3.0909ZM784.985 2.32265L806.654 93.2815L808.6 92.818L786.931 1.85916L784.985 2.32265ZM807.627 94.0497H808.714V92.0497H807.627V94.0497ZM809.681 93.3039L833.587 2.3451L831.653 1.83671L807.747 92.7955L809.681 93.3039ZM832.62 3.0909H858.508V1.0909H832.62V3.0909ZM857.54 2.34396L881.383 93.4945L883.318 92.9884L859.475 1.83785L857.54 2.34396ZM882.35 94.2415H883.501V92.2415H882.35V94.2415ZM884.474 93.4728L906.143 2.32219L904.197 1.85962L882.528 93.0102L884.474 93.4728ZM905.17 3.0909H935.404V1.0909H905.17V3.0909ZM934.443 1.81581L896.985 132.725L898.908 133.275L936.366 2.366L934.443 1.81581ZM897.947 132H870.972V134H897.947V132ZM871.932 132.72L847.003 47.1309L845.083 47.6901L870.012 133.28L871.932 132.72ZM846.043 46.4105H845.021V48.4105H846.043V46.4105ZM844.06 47.1315L819.195 132.721L821.116 133.279L845.981 47.6895L844.06 47.1315ZM820.156 132H793.181V134H820.156V132ZM959.598 133V134H960.324L960.549 133.309L959.598 133ZM929.939 133L928.994 132.674L928.536 134H929.939V133ZM975.131 2.0909V1.0909H974.418L974.185 1.76459L975.131 2.0909ZM1010.8 2.0909L1011.74 1.765L1011.51 1.0909H1010.8V2.0909ZM1055.93 133V134H1057.33L1056.87 132.674L1055.93 133ZM1026.27 133L1025.32 133.309L1025.54 134H1026.27V133ZM993.476 32.0057L994.427 31.6969L994.203 31.0057H993.476V32.0057ZM992.453 32.0057V31.0057H991.727L991.502 31.6963L992.453 32.0057ZM957.744 81.544V80.544H956.744V81.544H957.744ZM1027.8 81.544H1028.8V80.544H1027.8V81.544ZM1027.8 103.149V104.149H1028.8V103.149H1027.8ZM957.744 103.149H956.744V104.149H957.744V103.149ZM959.598 132H929.939V134H959.598V132ZM930.884 133.326L976.076 2.41722L974.185 1.76459L928.994 132.674L930.884 133.326ZM975.131 3.0909H1010.8V1.0909H975.131V3.0909ZM1009.85 2.41681L1054.98 133.326L1056.87 132.674L1011.74 1.765L1009.85 2.41681ZM1055.93 132H1026.27V134H1055.93V132ZM1027.22 132.691L994.427 31.6969L992.525 32.3145L1025.32 133.309L1027.22 132.691ZM993.476 31.0057H992.453V33.0057H993.476V31.0057ZM991.502 31.6963L958.647 132.691L960.549 133.309L993.404 32.315L991.502 31.6963ZM957.744 82.544H1027.8V80.544H957.744V82.544ZM1026.8 81.544V103.149H1028.8V81.544H1026.8ZM1027.8 102.149H957.744V104.149H1027.8V102.149ZM958.744 103.149V81.544H956.744V103.149H958.744ZM1099.36 2.0909H1100.36V1.0909H1099.36V2.0909ZM1099.36 133V134H1100.36V133H1099.36ZM1071.68 133H1070.68V134H1071.68V133ZM1071.68 2.0909V1.0909H1070.68V2.0909H1071.68ZM1098.36 2.0909V133H1100.36V2.0909H1098.36ZM1099.36 132H1071.68V134H1099.36V132ZM1072.68 133V2.0909H1070.68V133H1072.68ZM1071.68 3.0909H1099.36V1.0909H1071.68V3.0909ZM1117.15 24.9105H1116.15V25.9105H1117.15V24.9105ZM1117.15 2.0909V1.0909H1116.15V2.0909H1117.15ZM1224.66 2.0909H1225.66V1.0909H1224.66V2.0909ZM1224.66 24.9105V25.9105H1225.66V24.9105H1224.66ZM1184.58 24.9105V23.9105H1183.58V24.9105H1184.58ZM1184.58 133V134H1185.58V133H1184.58ZM1157.22 133H1156.22V134H1157.22V133ZM1157.22 24.9105H1158.22V23.9105H1157.22V24.9105ZM1118.15 24.9105V2.0909H1116.15V24.9105H1118.15ZM1117.15 3.0909H1224.66V1.0909H1117.15V3.0909ZM1223.66 2.0909V24.9105H1225.66V2.0909H1223.66ZM1224.66 23.9105H1184.58V25.9105H1224.66V23.9105ZM1183.58 24.9105V133H1185.58V24.9105H1183.58ZM1184.58 132H1157.22V134H1184.58V132ZM1158.22 133V24.9105H1156.22V133H1158.22ZM1157.22 23.9105H1117.15V25.9105H1157.22V23.9105ZM1242.37 133H1241.37V134H1242.37V133ZM1242.37 2.0909V1.0909H1241.37V2.0909H1242.37ZM1270.04 2.0909H1271.04V1.0909H1270.04V2.0909ZM1270.04 110.18H1269.04V111.18H1270.04V110.18ZM1326.17 110.18H1327.17V109.18H1326.17V110.18ZM1326.17 133V134H1327.17V133H1326.17ZM1243.37 133V2.0909H1241.37V133H1243.37ZM1242.37 3.0909H1270.04V1.0909H1242.37V3.0909ZM1269.04 2.0909V110.18H1271.04V2.0909H1269.04ZM1270.04 111.18H1326.17V109.18H1270.04V111.18ZM1325.17 110.18V133H1327.17V110.18H1325.17ZM1326.17 132H1242.37V134H1326.17V132ZM1372.17 2.0909H1373.17V1.0909H1372.17V2.0909ZM1372.17 133V134H1373.17V133H1372.17ZM1344.49 133H1343.49V134H1344.49V133ZM1344.49 2.0909V1.0909H1343.49V2.0909H1344.49ZM1371.17 2.0909V133H1373.17V2.0909H1371.17ZM1372.17 132H1344.49V134H1372.17V132ZM1345.49 133V2.0909H1343.49V133H1345.49ZM1344.49 3.0909H1372.17V1.0909H1344.49V3.0909ZM1465.96 39.7401L1464.96 39.8387L1465.05 40.7401H1465.96V39.7401ZM1432.15 25.358L1432.52 26.2874L1432.53 26.2829L1432.15 25.358ZM1424.99 30.5355L1424.19 29.9355L1424.18 29.9455L1424.99 30.5355ZM1422.56 38.0781L1423.56 38.1145L1423.56 38.0963V38.0781H1422.56ZM1424.03 44.2145L1423.17 44.7351L1423.18 44.7426L1423.18 44.75L1424.03 44.2145ZM1428.57 48.7528L1428.01 49.5849L1428.02 49.5892L1428.02 49.5934L1428.57 48.7528ZM1435.21 52.0128L1434.86 52.9498L1434.87 52.9524L1434.88 52.9549L1435.21 52.0128ZM1443.27 54.3139L1443.5 53.3413L1443.49 53.3397L1443.49 53.3381L1443.27 54.3139ZM1455.03 57.1264L1454.8 58.099L1454.8 58.1007L1454.81 58.1023L1455.03 57.1264ZM1470.75 62.2401L1470.35 63.1532L1470.75 62.2401ZM1483.15 70.1023L1483.82 69.3554L1483.15 70.1023ZM1491.27 81.0966L1490.36 81.5104L1490.37 81.518L1491.27 81.0966ZM1494.28 95.6065L1495.28 95.6118L1495.28 95.5987L1494.28 95.6065ZM1488.14 116.445L1487.32 115.878L1487.32 115.879L1488.14 116.445ZM1470.75 130.06L1471.14 130.98L1471.15 130.979L1470.75 130.06ZM1415.85 129.996L1415.46 130.919L1415.46 130.92L1415.85 129.996ZM1397.56 115.614L1396.74 116.176L1396.74 116.182L1397.56 115.614ZM1390.73 91.8991V90.8991H1389.7L1389.73 91.9218L1390.73 91.8991ZM1417.51 91.8991L1418.51 91.8313L1418.44 90.8991H1417.51V91.8991ZM1421.28 102.893L1420.48 103.495L1420.49 103.502L1420.49 103.508L1421.28 102.893ZM1430.29 109.477L1429.92 110.407L1429.94 110.411L1430.29 109.477ZM1455.35 109.605L1454.99 108.674L1454.98 108.675L1455.35 109.605ZM1463.47 103.916L1464.25 104.536L1463.47 103.916ZM1463.72 88.1278L1462.96 88.776L1462.97 88.7852L1463.72 88.1278ZM1456.18 83.0142L1455.79 83.9334L1455.79 83.9352L1456.18 83.0142ZM1444.1 79.179L1443.86 80.1489L1443.86 80.1511L1444.1 79.179ZM1429.84 75.5994L1430.09 74.6295L1430.08 74.6278L1429.84 75.5994ZM1403.7 63.0071L1403.04 63.7529L1403.7 63.0071ZM1394.18 39.9318L1395.18 39.9362V39.9264L1394.18 39.9318ZM1400.51 19.1577L1399.7 18.5698L1399.69 18.5737L1400.51 19.1577ZM1469.22 5.28693L1468.8 6.19583L1468.8 6.19675L1469.22 5.28693ZM1486.22 19.1577L1485.4 19.7219L1486.22 19.1577ZM1492.49 39.7401V40.7401H1493.5L1493.49 39.7237L1492.49 39.7401ZM1466.95 39.6414C1466.42 34.2273 1464.09 29.9546 1459.97 26.9177L1458.78 28.5283C1462.41 31.2016 1464.48 34.9403 1464.96 39.8387L1466.95 39.6414ZM1459.97 26.9177C1455.86 23.896 1450.37 22.4403 1443.59 22.4403V24.4403C1450.1 24.4403 1455.13 25.8398 1458.78 28.5283L1459.97 26.9177ZM1443.59 22.4403C1438.98 22.4403 1435.03 23.0912 1431.77 24.433L1432.53 26.2829C1435.48 25.0679 1439.16 24.4403 1443.59 24.4403V22.4403ZM1431.78 24.4286C1428.53 25.7182 1425.98 27.5442 1424.19 29.9355L1425.79 31.1355C1427.32 29.095 1429.54 27.4693 1432.52 26.2873L1431.78 24.4286ZM1424.18 29.9455C1422.43 32.3372 1421.56 35.0591 1421.56 38.0781H1423.56C1423.56 35.4721 1424.3 33.1657 1425.79 31.1255L1424.18 29.9455ZM1421.56 38.0418C1421.47 40.552 1421.99 42.7971 1423.17 44.7351L1424.88 43.6939C1423.93 42.1376 1423.48 40.2917 1423.56 38.1145L1421.56 38.0418ZM1423.18 44.75C1424.37 46.628 1425.99 48.2378 1428.01 49.5849L1429.12 47.9208C1427.31 46.711 1425.9 45.2953 1424.87 43.6789L1423.18 44.75ZM1428.02 49.5934C1430.01 50.8743 1432.29 51.9914 1434.86 52.9498L1435.56 51.0758C1433.11 50.1592 1430.96 49.103 1429.11 47.9123L1428.02 49.5934ZM1434.88 52.9549C1437.43 53.8646 1440.16 54.6425 1443.05 55.2898L1443.49 53.3381C1440.67 52.7069 1438.02 51.9507 1435.55 51.0707L1434.88 52.9549ZM1443.04 55.2865L1454.8 58.099L1455.26 56.1538L1443.5 53.3413L1443.04 55.2865ZM1454.81 58.1023C1460.46 59.3678 1465.64 61.0527 1470.35 63.1532L1471.16 61.3269C1466.32 59.1661 1461.02 57.4418 1455.25 56.1506L1454.81 58.1023ZM1470.35 63.1532C1475.04 65.2469 1479.08 67.8142 1482.49 70.8492L1483.82 69.3554C1480.24 66.1688 1476.02 63.4946 1471.16 61.3269L1470.35 63.1532ZM1482.49 70.8492C1485.88 73.8682 1488.5 77.4198 1490.36 81.5104L1492.18 80.6828C1490.21 76.3359 1487.42 72.558 1483.82 69.3554L1482.49 70.8492ZM1490.37 81.518C1492.26 85.5866 1493.23 90.2783 1493.28 95.6143L1495.28 95.5987C1495.23 90.0257 1494.21 85.044 1492.18 80.6752L1490.37 81.518ZM1493.28 95.6012C1493.23 103.437 1491.24 110.182 1487.32 115.878L1488.96 117.012C1493.14 110.946 1495.23 103.798 1495.28 95.6118L1493.28 95.6012ZM1487.32 115.879C1483.43 121.536 1477.8 125.963 1470.36 129.14L1471.15 130.979C1478.88 127.679 1484.83 123.029 1488.96 117.01L1487.32 115.879ZM1470.36 129.139C1462.98 132.269 1454.02 133.854 1443.46 133.854V135.854C1454.21 135.854 1463.45 134.242 1471.14 130.98L1470.36 129.139ZM1443.46 133.854C1432.99 133.854 1423.92 132.249 1416.23 129.071L1415.46 130.92C1423.45 134.219 1432.79 135.854 1443.46 135.854V133.854ZM1416.23 129.072C1408.59 125.9 1402.66 121.222 1398.39 115.045L1396.74 116.182C1401.25 122.704 1407.5 127.614 1415.46 130.919L1416.23 129.072ZM1398.39 115.051C1394.18 108.851 1391.93 101.144 1391.73 91.8765L1389.73 91.9218C1389.94 101.49 1392.26 109.593 1396.74 116.176L1398.39 115.051ZM1390.73 92.8991H1417.51V90.8991H1390.73V92.8991ZM1416.51 91.9669C1416.82 96.5115 1418.13 100.372 1420.48 103.495L1422.08 102.292C1420 99.5342 1418.79 96.0652 1418.51 91.8313L1416.51 91.9669ZM1420.49 103.508C1422.87 106.56 1426.02 108.856 1429.92 110.406L1430.66 108.548C1427.06 107.116 1424.21 105.023 1422.07 102.279L1420.49 103.508ZM1429.94 110.411C1433.86 111.911 1438.27 112.651 1443.14 112.651V110.651C1438.47 110.651 1434.31 109.942 1430.65 108.543L1429.94 110.411ZM1443.14 112.651C1447.92 112.651 1452.12 111.955 1455.72 110.535L1454.98 108.675C1451.67 109.982 1447.73 110.651 1443.14 110.651V112.651ZM1455.71 110.537C1459.34 109.122 1462.2 107.131 1464.25 104.536L1462.68 103.297C1460.9 105.559 1458.35 107.361 1454.99 108.674L1455.71 110.537ZM1464.25 104.536C1466.31 101.927 1467.34 98.9163 1467.34 95.5426H1465.34C1465.34 98.4758 1464.46 101.048 1462.68 103.297L1464.25 104.536ZM1467.34 95.5426C1467.34 92.3882 1466.4 89.6752 1464.48 87.4705L1462.97 88.7852C1464.54 90.5861 1465.34 92.8164 1465.34 95.5426H1467.34ZM1464.48 87.4797C1462.65 85.3224 1459.99 83.5388 1456.57 82.0932L1455.79 83.9352C1459.02 85.3021 1461.39 86.9276 1462.96 88.776L1464.48 87.4797ZM1456.57 82.0951C1453.23 80.6602 1449.14 79.366 1444.33 78.2068L1443.86 80.1511C1448.6 81.293 1452.57 82.5557 1455.79 83.9333L1456.57 82.0951ZM1444.34 78.2091L1430.09 74.6295L1429.6 76.5693L1443.86 80.1489L1444.34 78.2091ZM1430.08 74.6278C1419.15 71.9698 1410.6 67.8323 1404.37 62.2613L1403.04 63.7529C1409.58 69.6024 1418.46 73.8598 1429.61 76.5711L1430.08 74.6278ZM1404.37 62.2613C1398.22 56.7675 1395.14 49.3642 1395.18 39.9362L1393.18 39.9274C1393.13 49.8461 1396.4 57.8262 1403.04 63.7529L1404.37 62.2613ZM1395.18 39.9264C1395.14 32.1925 1397.19 25.4783 1401.32 19.7417L1399.69 18.5737C1395.3 24.6836 1393.13 31.8189 1393.18 39.9372L1395.18 39.9264ZM1401.31 19.7455C1405.5 13.9812 1411.26 9.46246 1418.62 6.20117L1417.81 4.37269C1410.16 7.75912 1404.12 12.4875 1399.7 18.5698L1401.31 19.7455ZM1418.62 6.20117C1425.97 2.94235 1434.35 1.30113 1443.78 1.30113V-0.698868C1434.12 -0.698868 1425.45 0.983776 1417.81 4.37269L1418.62 6.20117ZM1443.78 1.30113C1453.38 1.30113 1461.71 2.94365 1468.8 6.19582L1469.64 4.37803C1462.24 0.982479 1453.61 -0.698868 1443.78 -0.698868V1.30113ZM1468.8 6.19675C1475.95 9.45403 1481.46 13.9661 1485.4 19.7219L1487.05 18.5934C1482.89 12.5027 1477.07 7.76756 1469.63 4.37711L1468.8 6.19675ZM1485.4 19.7219C1489.33 25.4695 1491.36 32.1361 1491.49 39.7564L1493.49 39.7237C1493.36 31.7474 1491.22 24.6924 1487.05 18.5934L1485.4 19.7219ZM1492.49 38.7401H1465.96V40.7401H1492.49V38.7401ZM1507.91 24.9105H1506.91V25.9105H1507.91V24.9105ZM1507.91 2.0909V1.0909H1506.91V2.0909H1507.91ZM1615.42 2.0909H1616.42V1.0909H1615.42V2.0909ZM1615.42 24.9105V25.9105H1616.42V24.9105H1615.42ZM1575.34 24.9105V23.9105H1574.34V24.9105H1575.34ZM1575.34 133V134H1576.34V133H1575.34ZM1547.99 133H1546.99V134H1547.99V133ZM1547.99 24.9105H1548.99V23.9105H1547.99V24.9105ZM1508.91 24.9105V2.0909H1506.91V24.9105H1508.91ZM1507.91 3.0909H1615.42V1.0909H1507.91V3.0909ZM1614.42 2.0909V24.9105H1616.42V2.0909H1614.42ZM1615.42 23.9105H1575.34V25.9105H1615.42V23.9105ZM1574.34 24.9105V133H1576.34V24.9105H1574.34ZM1575.34 132H1547.99V134H1575.34V132ZM1548.99 133V24.9105H1546.99V133H1548.99ZM1547.99 23.9105H1507.91V25.9105H1547.99V23.9105Z" fill="#D9D9D9" fill-opacity="0.18"/>
</svg>
